<svg version="1.1" id="Layer_1" xmlns="http://www.w3.org/2000/svg" xmlns:xlink="http://www.w3.org/1999/xlink" x="0px" y="0px"
	 width="100%" viewBox="0 0 1024 1024" enable-background="new 0 0 1024 1024" xml:space="preserve">
<path fill="#000000" opacity="1.000000" stroke="none" 
	d="
M377.051117,740.057983 
	C367.249115,736.301514 357.926147,740.361389 348.570496,740.221497 
	C337.555145,740.056702 326.600555,739.963257 316.160217,735.697021 
	C309.597321,733.015137 302.688416,734.140869 295.883118,734.218445 
	C286.052032,734.330566 276.460175,733.103088 267.081787,729.875671 
	C262.828674,728.412109 258.571533,728.988831 254.260101,731.297668 
	C247.717117,734.801636 241.060822,737.366821 232.931686,736.535461 
	C222.349060,735.453186 211.749725,735.290955 201.413177,732.159973 
	C195.849655,730.474792 186.582397,722.352661 185.745972,716.849976 
	C185.369080,714.370422 185.998184,711.930725 188.191574,710.112976 
	C189.945755,708.659180 191.866394,707.282166 190.421799,704.282898 
	C189.072281,701.481079 187.017029,700.987183 184.310806,701.159119 
	C172.530365,701.907715 172.891190,701.695435 167.089188,690.796204 
	C163.268173,683.618225 157.002762,678.423950 149.329178,675.408142 
	C139.911240,671.706726 137.307343,667.866699 138.418304,657.519409 
	C139.015350,651.958618 139.177277,646.406372 140.373123,640.811096 
	C141.611313,635.017578 139.910889,628.685974 139.415070,622.623718 
	C138.559280,612.160095 144.384995,602.957520 154.732315,600.338379 
	C158.284164,599.439331 161.827240,598.475769 165.419449,597.771973 
	C174.367874,596.018555 179.794174,590.290222 182.608963,582.074219 
	C183.928909,578.221497 186.440720,576.470459 189.924423,575.351379 
	C206.377884,570.065857 223.336273,567.021301 240.513794,567.618713 
	C252.140427,568.023132 264.099304,567.897827 275.207428,573.376343 
	C284.481262,577.950134 292.620117,574.920654 298.276337,566.050354 
	C299.436493,564.231018 300.200775,562.157837 301.373932,560.348511 
	C304.537170,555.470032 307.583344,550.617981 313.620667,548.455994 
	C318.877045,546.573730 321.020660,541.659546 321.768250,536.641052 
	C323.416779,525.575073 326.550262,514.853333 328.716125,503.915924 
	C329.270599,501.115936 329.211639,498.276550 328.631348,495.468048 
	C327.485535,489.922516 329.113312,485.072998 333.158783,481.405487 
	C341.873291,473.505127 343.592346,464.581635 338.663269,453.920837 
	C336.941589,450.197113 335.831665,445.992188 335.412994,441.907501 
	C334.644958,434.413879 332.252960,427.831604 328.009552,421.549316 
	C323.622284,415.053955 327.121033,408.265503 329.133301,401.866455 
	C334.969025,383.308746 348.252869,370.254150 362.265472,357.761902 
	C370.824982,350.131104 379.244293,342.342773 387.709778,334.606812 
	C395.545288,327.446503 404.852356,323.178497 415.126617,321.077881 
	C429.174011,318.205811 443.013824,314.591370 456.811493,310.704773 
	C467.217285,307.773529 477.785431,305.325409 488.536987,303.891083 
	C494.526215,303.092102 500.233124,301.322388 505.872864,299.237854 
	C515.274902,295.762665 524.696838,296.532043 534.365112,298.441193 
	C550.714050,301.669586 565.229126,309.900543 580.968872,314.808167 
	C590.538208,317.791840 599.997681,320.682587 609.935852,322.174988 
	C630.010498,325.189575 645.472168,336.479095 659.107727,350.664368 
	C668.221924,360.146027 676.973938,369.975006 686.048950,379.495239 
	C693.372620,387.178223 699.101685,395.933746 703.839050,405.333496 
	C711.570312,420.673920 722.184387,434.487366 729.306030,449.964020 
	C737.203674,467.126892 742.321167,485.573639 748.550232,503.495728 
	C749.718445,506.856964 748.740784,510.142059 746.924500,513.064514 
	C743.520569,518.541687 743.460815,524.389709 744.624573,530.446289 
	C745.977722,537.488342 746.827515,544.575928 747.086304,551.762207 
	C747.374329,559.759216 749.755493,567.178162 754.580078,573.659973 
	C756.884216,576.755554 759.574402,579.375061 763.388794,580.752625 
	C771.358887,583.630920 778.559753,588.191589 786.766907,590.751221 
	C794.966980,593.308655 803.008362,594.118286 811.338013,592.787842 
	C820.206909,591.371277 828.835510,591.977844 837.548889,594.263489 
	C848.551453,597.149597 860.005981,597.011414 871.257690,597.801758 
	C885.604797,598.809448 896.156433,605.493408 898.595703,621.958130 
	C900.414978,634.238220 899.607910,646.872681 903.558167,658.900635 
	C904.966492,663.188843 899.324341,671.301636 894.281555,672.945984 
	C890.378479,674.218750 886.329529,675.541504 882.084045,673.948792 
	C878.731140,672.690918 876.914612,674.315002 874.614624,676.928040 
	C869.207092,683.071838 864.479675,690.159302 856.078979,693.026428 
	C853.310303,693.971313 850.904541,694.192444 848.555542,692.381958 
	C840.686890,686.317078 833.073059,688.984802 825.538025,693.068237 
	C822.489929,694.720154 819.161804,695.906250 816.721680,698.607239 
	C815.417664,700.050659 813.788025,699.429504 812.099121,698.884888 
	C793.479492,692.881104 774.974792,692.725891 756.485718,699.728149 
	C750.490051,701.998901 743.809387,701.795288 737.735046,704.054077 
	C735.456238,704.901428 731.846313,704.487915 733.744812,708.805542 
	C733.866760,709.082764 733.938843,709.651184 733.813538,709.728943 
	C728.506958,713.023682 730.343018,720.293274 725.843994,724.025269 
	C725.210327,724.550964 724.730103,725.587585 724.064087,725.698547 
	C716.379761,726.978943 710.685730,733.241150 702.291321,733.408386 
	C693.703674,733.579529 685.362732,736.828247 676.675171,737.476196 
	C673.631958,737.703186 670.624512,738.008606 667.790894,737.000061 
	C657.143921,733.210510 646.121948,733.833130 635.145325,734.020691 
	C629.719055,734.113281 624.474548,733.517578 619.621460,731.006531 
	C616.740234,729.515747 614.102539,730.408386 611.427917,731.360474 
	C600.922363,735.099731 590.500061,739.417725 578.986023,737.971985 
	C565.094238,736.227661 551.597961,741.017517 537.716980,740.125061 
	C529.406799,739.590759 521.233215,737.255310 512.864136,738.034668 
	C498.899628,739.335266 484.957550,737.984558 471.006622,738.034729 
	C467.027252,738.049072 462.941132,738.173218 459.091553,739.060608 
	C446.160187,742.041748 434.114288,736.510254 421.615051,735.469299 
	C417.348358,735.114014 413.218536,734.862305 409.358063,736.539490 
	C402.478241,739.528442 395.019531,739.316895 387.892975,740.891785 
	C384.459839,741.650452 380.932495,740.710144 377.051117,740.057983 
M490.603607,497.996552 
	C486.104614,514.860596 481.629272,531.730957 477.092865,548.584900 
	C475.646332,553.959106 476.653198,555.113892 482.281982,554.530334 
	C517.515869,550.877441 552.760132,547.322998 587.984192,543.577942 
	C595.143311,542.816650 602.438110,542.818298 609.722656,540.943420 
	C609.353699,539.875305 609.274353,539.173645 608.914978,538.673035 
	C593.799683,517.619324 578.650208,496.590149 563.533569,475.537323 
	C561.634277,472.892151 559.341858,472.429321 556.158325,472.980713 
	C540.570557,475.680481 524.948792,478.190338 509.318939,480.639160 
	C494.491669,482.962219 494.480743,482.892395 490.603607,497.996552 
M431.114258,547.256592 
	C440.158020,549.454590 449.242065,551.502869 458.226227,553.922302 
	C461.951355,554.925537 463.566406,553.396057 464.421448,550.226868 
	C465.676636,545.574524 466.805115,540.888123 468.047028,536.231995 
	C472.630646,519.048035 477.152527,501.846649 481.908813,484.710449 
	C482.882965,481.200745 482.418518,479.643219 478.599670,478.758636 
	C474.927155,477.907990 471.369690,476.272949 467.984497,474.545837 
	C464.183533,472.606689 461.701080,473.168549 459.176086,476.790771 
	C451.108429,488.364136 442.701721,499.700439 434.502075,511.182617 
	C427.219452,521.380615 420.038269,531.651062 412.402557,542.470093 
	C418.789520,544.106567 424.549744,545.582458 431.114258,547.256592 
M529.729370,426.754120 
	C526.435608,422.160675 523.121765,417.581451 519.859802,412.965576 
	C518.806213,411.474640 517.970154,409.525482 515.751526,409.977783 
	C513.862061,410.362976 513.490234,412.259186 513.065247,413.864258 
	C508.342377,431.702820 503.643158,449.547668 498.924286,467.387329 
	C498.604004,468.598175 498.434631,469.696381 500.197784,470.432434 
	C503.484283,467.479523 507.886322,467.443970 512.105408,466.732635 
	C523.087219,464.881165 534.076721,463.068146 545.031433,461.066315 
	C550.882874,459.997009 551.592285,458.306274 548.345581,453.566589 
	C542.331665,444.787445 536.197083,436.091003 529.729370,426.754120 
M471.558716,585.636963 
	C477.816040,584.964355 484.075104,584.307434 490.330292,583.615417 
	C500.706665,582.467468 511.083832,581.325500 521.452393,580.110596 
	C523.412231,579.880859 525.837402,579.666443 526.178284,577.230591 
	C526.549316,574.578552 524.091431,573.628113 522.199219,572.711182 
	C517.180603,570.279663 511.769440,570.744202 506.478546,571.175110 
	C494.910797,572.117371 483.382538,573.622559 471.803467,574.327515 
	C458.244873,575.153137 445.698792,569.807983 432.785950,566.874084 
	C418.702271,563.674072 404.784943,559.746521 390.771271,556.231201 
	C387.164581,555.326416 383.046509,558.287231 382.270508,562.392090 
	C381.482788,566.558777 385.113739,566.154968 387.434235,566.733887 
	C410.300598,572.438599 433.213806,577.958252 456.047577,583.789246 
	C460.911011,585.031189 465.609161,586.547119 471.558716,585.636963 
M864.353149,614.312866 
	C856.532532,614.330750 848.711121,614.286072 840.891541,614.387329 
	C835.148071,614.461670 831.835144,617.129700 831.356995,621.797119 
	C830.559753,629.579834 832.009399,632.234070 838.376160,633.870544 
	C845.574036,635.720581 852.944153,634.250977 860.217896,634.738159 
	C862.187805,634.870178 865.148071,633.990601 864.960754,637.435486 
	C864.799255,640.404480 862.166748,640.255432 859.997131,640.268127 
	C852.176758,640.313904 844.356018,640.323914 836.535461,640.333801 
	C834.261230,640.336670 832.053955,640.346191 832.099854,643.561340 
	C832.145874,646.787964 834.430359,646.691467 836.652588,646.692688 
	C846.303528,646.698059 855.955261,646.771057 865.605042,646.666260 
	C872.221680,646.594360 874.711304,643.816833 874.692078,636.971558 
	C874.673096,630.209412 872.049805,627.412231 865.529480,627.349915 
	C858.541687,627.283081 851.551331,627.379578 844.565735,627.232483 
	C842.405151,627.187012 839.852356,626.703857 840.086731,623.770386 
	C840.294678,621.168396 842.763916,621.755249 844.464600,621.739197 
	C852.284546,621.665649 860.105469,621.693298 867.926086,621.703186 
	C870.402161,621.706360 872.590576,621.617615 872.688599,618.174133 
	C872.794556,614.453674 870.528564,614.210388 867.798706,614.313171 
	C866.967957,614.344421 866.134949,614.314514 864.353149,614.312866 
M726.694763,628.553589 
	C726.811035,621.679504 726.811035,621.681946 733.611755,621.675781 
	C740.434814,621.669556 747.258423,621.702271 754.080688,621.623962 
	C756.404419,621.597290 759.219543,621.629028 759.394043,618.447754 
	C759.579712,615.062012 756.795593,614.474243 754.204346,614.448181 
	C745.219177,614.357849 736.225403,614.202698 727.249023,614.499634 
	C721.462769,614.691040 717.536743,619.183167 717.367676,625.033264 
	C717.257080,628.857605 717.197021,632.694397 717.372864,636.513672 
	C717.656006,642.661499 721.851807,646.643677 727.936096,646.664490 
	C736.755859,646.694702 745.582703,646.433044 754.393127,646.715393 
	C759.113159,646.866699 760.930359,645.405212 760.739380,640.500061 
	C760.165405,625.752625 763.244141,627.583618 747.313354,627.394409 
	C742.807495,627.340881 738.217468,626.897095 733.632263,627.811707 
	C734.184937,630.929688 736.066345,632.084045 737.837524,633.282715 
	C741.149902,635.524658 744.942261,634.462036 748.538269,634.711548 
	C750.517578,634.848816 752.243530,635.109985 752.148804,637.715088 
	C752.063599,640.058594 750.438660,640.275574 748.681946,640.290222 
	C745.021057,640.320801 741.359802,640.317932 737.698730,640.323914 
	C726.691528,640.341797 726.691528,640.340820 726.694763,628.553589 
M611.227417,571.440186 
	C622.230469,570.133057 633.404907,569.948059 644.439026,567.340149 
	C641.137268,559.159668 638.727905,557.088074 634.383179,557.577515 
	C619.724670,559.228699 605.086182,561.294922 590.378418,562.198853 
	C577.928223,562.964050 566.256836,566.382996 554.558655,570.073303 
	C552.714050,570.655212 550.651367,571.199829 549.991638,573.492920 
	C550.657288,575.813660 552.551331,575.976257 554.389343,575.907654 
	C561.193848,575.653564 568.012207,575.506409 574.792603,574.932434 
	C586.682251,573.926086 598.547729,572.634460 611.227417,571.440186 
M267.608765,621.654480 
	C271.937653,621.664307 276.274231,621.525940 280.592041,621.749634 
	C282.597748,621.853455 286.043488,620.403198 285.964661,624.153992 
	C285.893555,627.536133 282.677612,627.306458 280.207275,627.337708 
	C274.713654,627.407288 269.217377,627.305908 263.724945,627.414124 
	C258.299133,627.521057 255.465836,630.398865 255.352783,635.693787 
	C255.320801,637.191589 255.485092,638.707336 255.312164,640.185913 
	C254.743576,645.047546 257.062286,646.769348 261.679596,646.699341 
	C271.001312,646.557922 280.326416,646.657043 289.649933,646.610352 
	C291.747772,646.599854 294.383087,647.082520 294.469208,643.809265 
	C294.560333,640.344543 291.781616,640.467957 289.492920,640.426331 
	C283.334381,640.314148 277.164185,640.541199 271.017273,640.245483 
	C268.559418,640.127136 264.328857,642.042908 264.066193,637.903137 
	C263.760406,633.083435 268.295624,634.992554 270.885620,634.759888 
	C276.814575,634.227173 282.886230,635.628479 288.707733,633.551453 
	C293.396545,631.878540 294.957153,628.500671 294.622589,621.781860 
	C294.411865,617.550354 291.889526,614.862366 288.226257,614.680847 
	C278.762512,614.211792 269.261475,614.453979 259.775787,614.503662 
	C257.887482,614.513550 256.675690,615.708496 256.480347,617.628357 
	C256.247223,619.919678 257.718384,621.087830 259.679565,621.358215 
	C261.972656,621.674194 264.323517,621.571106 267.608765,621.654480 
M796.878845,640.145020 
	C794.952209,639.718628 794.641174,638.306519 794.956726,636.704773 
	C795.343201,634.742981 797.029480,634.776062 798.515015,634.753540 
	C803.674133,634.675232 808.836304,634.737122 813.993103,634.594299 
	C816.691650,634.519531 817.706909,632.776428 817.614441,630.217590 
	C817.522522,627.674438 815.817261,627.358826 813.822510,627.362854 
	C809.161438,627.372375 804.498535,627.442017 799.840149,627.330505 
	C797.833130,627.282471 795.033386,627.973877 794.936096,624.657898 
	C794.825562,620.889893 797.908875,621.766235 800.029724,621.727234 
	C806.686279,621.604797 813.346130,621.667725 820.004700,621.642151 
	C821.820251,621.635193 823.387573,621.174194 823.507690,618.982544 
	C823.618286,616.962646 822.878174,615.283447 820.793945,614.758301 
	C819.367126,614.398682 817.832581,614.368347 816.345520,614.362732 
	C808.188660,614.331726 800.021545,614.599792 791.878357,614.266602 
	C786.868530,614.061707 785.384949,616.427124 785.398621,620.801941 
	C785.419983,627.626892 785.473450,634.453857 785.330811,641.276184 
	C785.248962,645.188660 787.158386,646.661316 790.803345,646.654297 
	C800.291870,646.636108 809.780579,646.658508 819.269165,646.682678 
	C821.639587,646.688660 823.699646,646.379639 823.563110,643.262207 
	C823.436401,640.368774 821.344421,640.371521 819.282104,640.359619 
	C812.124329,640.318237 804.966553,640.289917 796.878845,640.145020 
M673.369751,615.586548 
	C670.294983,617.693237 667.384277,619.941284 667.338806,624.151855 
	C667.292114,628.474487 667.156006,632.806580 667.370605,637.118958 
	C667.636230,642.457703 671.484131,646.548218 676.342957,646.621155 
	C684.654602,646.746033 692.972290,646.752563 701.282654,646.578857 
	C706.732239,646.465027 710.383789,642.864136 710.617615,637.534363 
	C710.806946,633.219543 710.798645,628.883972 710.619812,624.568237 
	C710.412292,619.559875 707.128540,615.007019 702.357056,614.744873 
	C692.952148,614.228149 683.473755,613.462585 673.369751,615.586548 
M522.794128,645.527344 
	C529.096924,647.494629 530.503052,646.423279 530.706238,639.883362 
	C530.862305,634.858887 530.058472,629.755859 531.373779,624.418335 
	C534.559265,625.726562 536.227539,628.063293 538.179932,630.003784 
	C543.001221,634.795654 546.863037,640.494324 552.221924,644.789612 
	C555.648743,647.536255 559.505798,647.083862 563.130859,645.904663 
	C566.691711,644.746399 565.619934,641.230469 565.663025,638.541504 
	C565.764404,632.215942 565.657471,625.887268 565.666992,619.559875 
	C565.671814,616.345459 564.195679,614.533630 560.914124,614.410461 
	C557.400513,614.278442 556.286560,616.320740 556.312805,619.481567 
	C556.350159,623.976929 556.340698,628.473877 556.252625,632.968262 
	C556.228882,634.183411 556.731567,635.720703 554.721130,636.511230 
	C551.241699,633.883484 548.306824,630.529602 545.520325,627.050049 
	C542.276062,622.998840 538.531189,619.424988 534.546021,616.177307 
	C530.179810,612.619141 522.047852,613.662903 521.802246,617.743774 
	C521.257080,626.803772 520.391296,635.945679 522.794128,645.527344 
M376.318329,630.509888 
	C376.320068,634.169739 376.494843,637.840027 376.276764,641.486694 
	C376.039703,645.451050 377.767242,646.751221 381.573792,646.689575 
	C390.720703,646.541443 399.872894,646.735840 409.020752,646.617859 
	C410.887085,646.593872 413.869720,647.841431 414.096802,644.373474 
	C414.319336,640.974426 411.806671,640.376892 409.055481,640.370239 
	C402.734009,640.354980 396.412201,640.362183 390.091248,640.293640 
	C388.132172,640.272339 385.782623,640.511292 385.831573,637.486938 
	C385.879944,634.498230 388.227600,634.784119 390.179199,634.740662 
	C394.668488,634.640625 399.163849,634.727173 403.648499,634.539612 
	C406.104309,634.436890 407.687805,633.154053 407.578735,630.399414 
	C407.466827,627.574097 405.549561,627.383362 403.396576,627.391113 
	C399.071503,627.406677 394.745239,627.420166 390.421448,627.334412 
	C388.332336,627.293091 385.714844,627.709290 385.874084,624.318726 
	C386.014313,621.331970 388.415009,621.713562 390.331512,621.678894 
	C396.152283,621.573547 401.983917,621.743286 407.792297,621.440979 
	C410.011841,621.325439 413.455475,621.986938 413.627747,618.351807 
	C413.799164,614.734314 410.502716,614.839661 408.160645,614.772095 
	C399.187653,614.512878 390.207581,614.458374 381.229797,614.426941 
	C377.946808,614.415466 376.453339,616.402466 376.393463,619.540466 
	C376.329956,622.866638 376.343201,626.194153 376.318329,630.509888 
M594.500122,646.654236 
	C598.155090,646.647644 601.811523,646.705505 605.464600,646.619629 
	C611.239258,646.483887 615.119324,643.687622 616.213989,638.173828 
	C617.216248,633.125488 617.226929,627.875977 616.193909,622.836121 
	C615.109009,617.543457 611.300049,614.573914 605.840515,614.442383 
	C598.203308,614.258362 590.551270,614.215576 582.918274,614.479431 
	C577.049805,614.682312 573.476807,618.642700 573.360107,624.453979 
	C573.276733,628.605774 573.219849,632.763916 573.353394,636.912720 
	C573.546265,642.903687 577.111511,646.471741 583.043457,646.665955 
	C586.528198,646.780029 590.020325,646.666077 594.500122,646.654236 
M155.045990,646.676270 
	C157.012711,646.531128 159.468643,647.461060 160.852783,646.001648 
	C165.591858,641.004700 171.479614,642.343018 177.204590,642.439941 
	C179.286819,642.475220 181.499008,643.273071 183.654663,641.470947 
	C182.526321,631.828430 173.837357,637.197693 168.759766,634.190735 
	C170.326736,629.635193 173.203812,625.942566 175.353058,621.983032 
	C177.691086,622.534424 177.981140,624.163879 178.690857,625.406799 
	C181.899109,631.025513 185.258804,636.567871 188.216293,642.316589 
	C190.765625,647.272095 194.430008,647.411926 198.773804,645.940918 
	C198.924316,645.457764 199.055466,645.269714 199.008301,645.155029 
	C194.702255,634.682251 188.346603,625.342712 182.477875,615.754456 
	C180.778122,612.977356 170.480087,613.714172 168.808731,616.500610 
	C163.344452,625.610596 158.091751,634.847229 152.703491,644.003174 
	C151.482346,646.078247 152.279526,646.683533 155.045990,646.676270 
M431.484253,622.352295 
	C433.312988,621.246338 435.339142,621.514832 437.323944,621.525391 
	C443.655151,621.559082 449.986450,621.648132 456.317413,621.624939 
	C458.971680,621.615173 462.298035,621.825317 462.251984,618.038330 
	C462.206970,614.332397 458.851837,614.456116 456.229584,614.431946 
	C448.402893,614.359802 440.571106,614.309082 432.748138,614.512878 
	C425.919434,614.690735 421.456268,619.481018 421.341644,626.370483 
	C421.286224,629.701843 421.212646,633.040344 421.362549,636.365967 
	C421.600372,641.641663 425.603943,646.428589 430.522217,646.572266 
	C439.677307,646.839661 448.846924,646.646484 458.010010,646.578796 
	C460.423157,646.560913 462.436737,645.576843 462.361908,642.838501 
	C462.278870,639.799438 459.695892,640.391113 457.827820,640.367859 
	C450.664001,640.278625 443.498810,640.287659 436.334106,640.293457 
	C432.486664,640.296570 430.402618,638.736023 430.672546,634.575806 
	C430.919952,630.762451 430.913818,626.932617 431.484253,622.352295 
M218.214523,628.197998 
	C220.290207,629.972900 219.724884,631.634155 217.967056,633.203613 
	C215.489029,635.416016 212.995819,637.611633 210.493683,639.796753 
	C208.565872,641.480286 206.207596,642.852478 205.905334,645.815308 
	C211.983322,647.316528 214.136810,646.773987 218.624695,643.258850 
	C221.431473,641.060425 223.020279,635.918762 226.718506,636.742126 
	C230.042679,637.482239 232.855225,641.048340 235.616211,643.660828 
	C239.351303,647.195068 243.440353,647.273071 248.453323,645.822144 
	C243.782547,639.866394 237.892242,635.797791 232.408936,630.308167 
	C237.246826,627.124268 240.715012,623.174622 244.393433,619.435425 
	C245.292465,618.521606 246.901459,617.942139 246.340683,616.312073 
	C245.751404,614.599304 244.035156,614.623535 242.554977,614.488464 
	C238.944611,614.159119 236.774872,616.680542 234.408875,618.733337 
	C226.823318,625.314880 226.900040,625.256836 219.602142,618.950928 
	C215.748474,615.621155 211.654297,612.496155 205.732864,615.394409 
	C208.878067,620.678955 214.074249,623.456299 218.214523,628.197998 
M353.677002,629.565979 
	C353.703064,621.594849 353.703033,621.605164 361.551422,621.627869 
	C363.378326,621.633179 365.215393,621.643555 367.029755,621.466675 
	C368.868134,621.287476 370.190643,620.267944 370.295074,618.309753 
	C370.401459,616.314392 369.179291,615.163818 367.302216,614.992981 
	C364.506409,614.738586 361.690369,614.703979 358.882477,614.586487 
	C349.905304,614.210571 340.937469,614.248291 331.976105,615.029907 
	C329.778778,615.221497 327.911072,615.694153 327.823761,618.295288 
	C327.733185,620.993103 329.632385,621.544617 331.833527,621.582275 
	C333.828674,621.616455 335.824066,621.638550 337.819458,621.654114 
	C344.288391,621.704590 344.291992,621.702454 344.314575,628.394836 
	C344.329712,632.884766 344.396149,637.375732 344.320831,641.864258 
	C344.264069,645.248657 345.827301,646.670105 349.168854,646.641113 
	C352.361145,646.613403 353.682037,645.048035 353.670563,642.016602 
	C353.656097,638.192017 353.673157,634.367249 353.677002,629.565979 
M625.289978,646.428284 
	C635.941772,646.511108 646.593445,646.602051 657.245361,646.669495 
	C659.300476,646.682495 661.411865,646.680786 661.555969,643.793152 
	C661.709961,640.709045 659.690979,640.315735 657.296082,640.318542 
	C650.802490,640.326172 644.302490,640.126404 637.817688,640.359436 
	C633.837646,640.502502 632.494202,638.928467 632.649292,635.100159 
	C632.851257,630.113647 632.622009,625.111145 632.696838,620.117310 
	C632.745117,616.891724 632.024414,614.456299 628.157288,614.421570 
	C624.383911,614.387756 623.343201,616.686401 623.346741,619.952209 
	C623.353271,625.946289 623.203552,631.943726 623.366333,637.933044 
	C623.440308,640.654846 622.343811,643.622192 625.289978,646.428284 
M494.563202,627.380676 
	C490.963165,627.881836 486.978058,626.215515 483.689819,629.075684 
	C485.757965,635.456543 490.832672,634.746826 495.625275,634.718933 
	C503.482727,634.673279 503.599365,634.681030 504.299286,642.241394 
	C504.577911,645.250671 506.231232,646.259277 508.803955,646.475464 
	C511.612549,646.711487 513.444519,645.319702 513.501099,642.552612 
	C513.667419,634.422241 513.661743,626.286316 513.578308,618.154053 
	C513.550720,615.466980 511.616791,614.522522 509.179901,614.436340 
	C506.685791,614.348145 504.962616,615.396790 504.554230,617.953430 
	C504.320526,619.416626 504.255035,620.941223 504.368469,622.418640 
	C504.643585,626.001831 503.228973,627.742310 499.507019,627.398499 
	C498.190094,627.276855 496.852356,627.380493 494.563202,627.380676 
M494.108978,438.779510 
	C495.178680,434.311371 497.220184,429.998077 496.450073,425.120270 
	C488.142273,435.860474 480.412750,446.800079 472.711578,457.759583 
	C471.036224,460.143799 471.868256,461.716705 474.426239,462.749237 
	C478.307343,464.315765 482.606415,465.353516 484.397766,470.421478 
	C488.947327,460.299561 490.845581,449.747955 494.108978,438.779510 
M769.326538,632.490234 
	C769.328979,635.804016 769.393005,639.119263 769.315125,642.431152 
	C769.246948,645.330688 770.467712,646.679810 773.447998,646.656189 
	C776.402893,646.632812 777.664124,645.232361 777.658264,642.392395 
	C777.642273,634.605103 777.684875,626.817627 777.628784,619.030701 
	C777.609253,616.321411 776.204895,614.618713 773.398560,614.506958 
	C770.289246,614.383118 769.465637,616.528809 769.403687,619.073914 
	C769.302917,623.214050 769.345886,627.357727 769.326538,632.490234 
M474.358368,646.527649 
	C476.627869,646.397827 478.374725,645.326538 478.415466,642.995972 
	C478.557129,634.890137 478.580292,626.778503 478.428375,618.673218 
	C478.376892,615.924927 476.356934,614.557739 473.718292,614.583130 
	C470.808258,614.611023 470.349152,616.797729 470.341736,619.108337 
	C470.316681,626.890808 470.340240,634.673401 470.320221,642.455933 
	C470.314392,644.725525 471.015381,646.361572 474.358368,646.527649 
M396.864258,549.833313 
	C399.842865,550.482910 403.868134,552.554504 404.966431,548.293640 
	C406.180878,543.582458 406.747101,538.391052 404.969757,532.665833 
	C400.007538,536.555481 397.564178,541.474426 394.619873,545.939209 
	C393.672180,547.376282 394.572998,548.808167 396.864258,549.833313 
M626.560791,550.242981 
	C628.594177,550.276794 629.875671,549.131653 629.713501,547.254517 
	C629.456116,544.276794 627.640503,542.006836 625.020325,540.699402 
	C622.557007,539.470276 619.887390,539.630249 618.669983,542.442322 
	C617.431274,545.303650 618.669006,547.603882 621.639832,548.738220 
	C623.021790,549.265869 624.470154,549.619873 626.560791,550.242981 
z"/>
<path fill="#000000" opacity="1.000000" stroke="none" 
	d="
M702.271362,634.654053 
	C702.114014,638.552124 700.299438,640.267090 696.883972,640.276489 
	C691.899048,640.290222 686.913147,640.329529 681.929260,640.254028 
	C678.636108,640.204102 676.648926,638.790161 676.696106,635.111816 
	C676.906921,618.673462 674.647827,622.023071 689.426941,621.648865 
	C689.593018,621.644653 689.759338,621.646973 689.925476,621.650085 
	C703.799011,621.912415 702.206238,619.560852 702.271362,634.654053 
z"/>
<path fill="#000000" opacity="1.000000" stroke="none" 
	d="
M601.405396,621.613037 
	C606.405945,620.733093 607.507019,622.858887 607.387268,627.124084 
	C606.998901,640.948792 609.354736,640.270691 594.273132,640.340820 
	C580.296509,640.405884 581.704407,640.608337 581.727295,625.899536 
	C581.731812,622.996521 583.149536,621.654480 586.014587,621.659912 
	C590.997498,621.669373 595.980530,621.636169 601.405396,621.613037 
z"/>
</svg>